{"title":"30 Days Of Night (2007) 720p BLuRay x264 Dual Audio [Eng DD 5.1-","uid":11535524,"size":1235720046,"categoryP":"video","categoryS":"hd___movies","magnet":"?xt=urn:btih:de3cfbf033a8ffa1cba5318695a504f6e15d0119&amp;dn=30+Days+Of+Night+%282007%29+720p+BLuRay+x264+Dual+Audio+%5BEng+DD+5.1-&amp;tr=udp%3A%2F%2Ftracker.openbittorrent.com%3A80&amp;tr=udp%3A%2F%2Fopen.demonii.com%3A1337&amp;tr=udp%3A%2F%2Ftracker.coppersurfer.tk%3A6969&amp;tr=udp%3A%2F%2Fexodus.desync.com%3A6969","seeders":5,"leechers":3,"uploader":"Xdesiars","files":5,"time":1416620330,"description":"Format                                   : Matroska\nFormat version                           : Version 2\nFile size                                : 1.14 GiB\nDuration                                 : 1h 53mn\nOverall bit rate                         : 1 445 Kbps\nMovie name                               : 30 Days Of Night (2007) by XdesiArsenal [ExD-XMR]\nEncoded date                             : UTC 2014-11-19 21:43:05\nWriting application                      : mkvmerge v5.0.1 ('Es ist Sommer') built on Nov 23 2011 20:48:57\nWriting library                          : libebml v1.2.2 + libmatroska v1.3.0\n\nVideo\nID                                       : 1\nFormat                                   : AVC\nFormat/Info                              : Advanced Video Codec\nFormat profile                           : &lt;a class=&quot;__cf_email__&quot; href=&quot;/cdn-cgi/l/email-protection&quot; data-cfemail=&quot;6b260a02052b2758455a&quot;&gt;[email&amp;#160;protected]&lt;/a&gt;&lt;script cf-hash='f9e31' type=&quot;text/javascript&quot;&gt;\n/* &lt;![CDATA[ */!function(){try{var t=&quot;currentScript&quot;in document?document.currentScript:function(){for(var t=document.getElementsByTagName(&quot;script&quot;),e=t.length;e--;)if(t[e].getAttribute(&quot;cf-hash&quot;))return t[e]}();if(t&amp;&amp;t.previousSibling){var e,r,n,i,c=t.previousSibling,a=c.getAttribute(&quot;data-cfemail&quot;);if(a){for(e=&quot;&quot;,r=parseInt(a.substr(0,2),16),n=2;a.length-n;n+=2)i=parseInt(a.substr(n,2),16)^r,e+=String.fromCharCode(i);e=document.createTextNode(e),c.parentNode.replaceChild(e,c)}}}catch(u){}}();/* ]]&gt; */&lt;/script&gt;\nFormat settings, CABAC                   : Yes\nFormat settings, ReFrames                : 4 frames\nMuxing mode                              : Header stripping\nCodec ID                                 : V_MPEG4/ISO/AVC\nDuration                                 : 1h 53mn\nBit rate                                 : 1 096 Kbps\nWidth                                    : 1 280 pixels\nHeight                                   : 720 pixels\nDisplay aspect ratio                     : 2.40:1\nFrame rate mode                          : Constant\nFrame rate                               : 23.976 fps\nColor space                              : YUV\nChroma subsampling                       : 4:2:0\nBit depth                                : 8 bits\nScan type                                : Progressive\nBits/(Pixel*Frame)                       : 0.050\nStream size                              : 886 MiB (76%)\nTitle                                    : 30 Days Of Night (2007) by XdesiArsenal [ExD-XMR]\nWriting library                          : x264 core 112\nLanguage                                 : English\nDefault                                  : No\nForced                                   : No\nColor primaries                          : BT.709\nTransfer characteristics                 : BT.709\nMatrix coefficients                      : BT.709\n\nAudio #1\nID                                       : 2\nFormat                                   : AC-3\nFormat/Info                              : Audio Coding 3\nMode extension                           : CM (complete main)\nFormat settings, Endianness              : Big\nMuxing mode                              : Header stripping\nCodec ID                                 : A_AC3\nDuration                                 : 1h 53mn\nBit rate mode                            : Constant\nBit rate                                 : 192 Kbps\nChannel(s)                               : 6 channels\nChannel positions                        : Front: L C R, Side: L R, LFE\nSampling rate                            : 48.0 KHz\nBit depth                                : 16 bits\nCompression mode                         : Lossy\nStream size                              : 155 MiB (13%)\nTitle                                    : XdesiArsenal\nLanguage                                 : English\nDefault                                  : Yes\nForced                                   : No\n\nAudio #2\nID                                       : 3\nFormat                                   : AC-3\nFormat/Info                              : Audio Coding 3\nMode extension                           : CM (complete main)\nFormat settings, Endianness              : Big\nMuxing mode                              : Header stripping\nCodec ID                                 : A_AC3\nDuration                                 : 1h 53mn\nBit rate mode                            : Constant\nBit rate                                 : 128 Kbps\nChannel(s)                               : 2 channels\nChannel positions                        : Front: L R\nSampling rate                            : 48.0 KHz\nBit depth                                : 16 bits\nCompression mode                         : Lossy\nStream size                              : 104 MiB (9%)\nTitle                                    : XdesiArsenal\nLanguage                                 : Hindi\nDefault                                  : No\nForced                                   : No\n\nMenu\n00:00:00.000                             : en:Chapter 1\n00:06:31.141                             : en:Chapter 2\n00:14:51.432                             : en:Chapter 3\n00:21:05.865                             : en:Chapter 4\n00:28:13.349                             : en:Chapter 5\n00:35:53.505                             : en:Chapter 6\n00:41:38.291                             : en:Chapter 7\n00:50:26.735                             : en:Chapter 8\n00:54:40.214                             : en:Chapter 9\n01:02:24.844                             : en:Chapter 10\n01:09:03.576                             : en:Chapter 11\n01:14:49.809                             : en:Chapter 12\n01:23:20.945                             : en:Chapter 13\n01:26:41.608                             : en:Chapter 14\n01:33:37.774                             : en:Chapter 15\n01:38:00.870                             : en:Chapter 16","torrent":{"xt":"urn:btih:de3cfbf033a8ffa1cba5318695a504f6e15d0119","amp;dn":"30+Days+Of+Night+%282007%29+720p+BLuRay+x264+Dual+Audio+%5BEng+DD+5.1-","amp;tr":["udp%3A%2F%2Ftracker.openbittorrent.com%3A80","udp%3A%2F%2Fopen.demonii.com%3A1337","udp%3A%2F%2Ftracker.coppersurfer.tk%3A6969","udp%3A%2F%2Fexodus.desync.com%3A6969"],"infoHash":"de3cfbf033a8ffa1cba5318695a504f6e15d0119","infoHashBuffer":{"type":"Buffer","data":[222,60,251,240,51,168,255,161,203,165,49,134,149,165,4,246,225,93,1,25]},"announce":[],"urlList":[]}}